# xmcd CD database file
#
# Track frame offsets:
#	150
#	19845
#	37167
#	56002
#	72975
#	90325
#	109367
#
# Disc length: 1705 seconds
#
# Revision: 0
# Processed by: cddbd v1.5.1PL0 Copyright (c) Steve Scherf et al.
# Submitted via: CDex 1.51
#
DISCID=5d06a707
DTITLE=GREEN BEAR - プレゼンス
DYEAR=2003
DGENRE=JPop
TTITLE0=プレゼンス
TTITLE1=Puzzle
TTITLE2=I mean love
TTITLE3=ポプラ
TTITLE4=Flower Life
TTITLE5=タペストリー
TTITLE6=One Love
EXTD=YEAR: 2003
EXTT0=
EXTT1=
EXTT2=
EXTT3=
EXTT4=
EXTT5=
EXTT6=
PLAYORDER=
